<?xml version="1.0" encoding="UTF-8" standalone="no"?>
<!-- Created with Inkscape (http://www.inkscape.org/) -->

<svg
   xmlns:osb="http://www.openswatchbook.org/uri/2009/osb"
   xmlns:dc="http://purl.org/dc/elements/1.1/"
   xmlns:cc="http://creativecommons.org/ns#"
   xmlns:rdf="http://www.w3.org/1999/02/22-rdf-syntax-ns#"
   xmlns:svg="http://www.w3.org/2000/svg"
   xmlns="http://www.w3.org/2000/svg"
   xmlns:sodipodi="http://sodipodi.sourceforge.net/DTD/sodipodi-0.dtd"
   xmlns:inkscape="http://www.inkscape.org/namespaces/inkscape"
   id="svg3330"
   height="24"
   width="24"
   version="1.1"
   inkscape:version="0.48.4 r9939"
   sodipodi:docname="muted.svg">
  <defs
     id="defs3147">
    <linearGradient
       id="linearGradient5206"
       osb:paint="solid">
      <stop
         style="stop-color:#000000;stop-opacity:1;"
         offset="0"
         id="stop5208" />
    </linearGradient>
    <mask
       maskUnits="userSpaceOnUse"
       id="mask3003">
      <path
         inkscape:connector-curvature="0"
         d="m 14.13126,14.832443 c 0.01702,0.207084 0.0332,0.414551 0.01377,0.621995 -0.0024,0.02549 -0.0053,0.05108 -0.01108,0.07601 -0.01593,0.06822 -0.03606,0.135397 -0.05409,0.203095 0.0087,0.02557 0.03448,-0.161893 0.03378,-0.120261 -7.12e-4,0.04222 -0.02085,0.165301 -0.02424,0.226931 -0.0013,0.02391 0.0024,0.04784 0.0034,0.07177 0.01126,0.149284 -0.01168,0.298089 -0.02615,0.446269 -0.0016,0.01594 -7.08e-4,0.03208 -0.0027,0.04797 -0.02659,0.207156 -0.03075,0.118159 -0.02527,0.203599 0.0011,0.102113 0.004,0.204194 0.006,0.30629 9.93e-4,0.04987 0.0064,0.09987 0.0026,0.149608 -0.0189,0.252085 -0.03049,0.293056 -0.06883,0.496137 3.2e-5,0.01484 0.0012,0.02972 9.7e-5,0.04452 -0.0082,0.111401 -0.01552,0.117341 -0.01666,0.209431 -6.92e-4,0.05592 0.0053,0.113319 0.0076,0.169109 0.0049,0.17357 3.96e-4,0.347219 4.34e-4,0.520833 0.0079,0.157101 -0.01824,0.312652 -0.04668,0.466637 -0.0021,0.01164 0.0063,-0.02288 0.0079,-0.03461 0.0035,-0.02499 0.0049,-0.05021 0.0074,-0.07532 5.61e-4,9.41e-4 0.0016,0.0017 0.0017,0.0028 0.0036,0.0476 0.01284,0.190325 0.0058,0.143102 -0.0054,-0.03671 -0.01158,-0.07429 -0.007,-0.111125 0.0027,-0.02201 0.0097,0.04334 0.0127,0.06532 0.0083,0.06049 0.01424,0.121282 0.02136,0.181923 0.0033,0.175896 0.006,0.13019 -0.0018,0.277684 -0.001,0.01879 -0.0022,0.07514 -0.0032,0.05635 -0.0123,-0.228109 -0.02669,-0.27725 0.0034,-0.137821 0.05,0.213527 0.02164,0.430595 0.02259,0.646479 -0.04382,0.383275 -0.0083,0.136115 -0.04523,0.333808 -0.0024,0.01295 0.0064,-0.0256 0.0084,-0.03862 0.0032,-0.02092 0.0015,-0.0427 0.0072,-0.0631 0.0027,-0.0096 0.0016,0.01981 0.0021,0.02973 0.0013,0.02846 0.0021,0.05694 0.0031,0.0854 0.0088,0.245841 -0.0067,0.498027 -0.08113,0.734192 -0.02117,0.06716 -0.04913,0.131978 -0.07369,0.197967 0.01232,-0.03121 0.02808,-0.06127 0.03697,-0.09362 0.01305,-0.04749 0.01982,-0.09649 0.02861,-0.144945 0.002,-0.01106 5.49e-4,-0.0443 0.0037,-0.03352 0.006,0.02036 0.004,0.0423 0.0052,0.06351 0.0081,0.14857 0.0065,0.148997 0.0079,0.297483 -4.09e-4,0.05582 -7.79e-4,0.111648 -0.0012,0.167471 -4.92e-4,0.06133 0.0029,0.122823 -0.0016,0.183993 -0.01994,0.272845 -0.07874,0.541867 -0.09197,0.814871 0.0059,0.198851 0.01633,0.397499 0.01838,0.596467 5.97e-4,0.0579 0.0054,0.116053 1.21e-4,0.173712 -0.01058,0.114599 -0.03181,0.227964 -0.04772,0.341945 -0.07787,0.320979 -0.02133,0.122805 -0.01977,0.05563 0.0022,-0.09579 -0.02376,-0.316962 0.0155,0.09149 0.004,0.164932 -0.0041,0.329755 -0.0025,0.49469 0.0043,0.505517 0.01178,-0.402728 -0.448871,-0.738656 -0.250851,-0.182932 -0.614801,-0.08707 -0.922201,-0.130604 -0.799711,-0.312995 -0.34647,0.573124 -0.63492,0.699331 -0.08044,0.03519 0.03509,-0.172078 0.05476,-0.257648 0.05182,-0.225456 0.135341,-0.437322 0.223842,-0.65037 0.02215,-0.0511 0.04431,-0.102198 0.06646,-0.153297 -0.0013,-0.0052 -0.0047,-0.01024 -0.0038,-0.01548 0.0056,-0.03303 0.02,-0.06448 0.02304,-0.09785 7.22e-4,-0.0079 -0.0126,-0.01247 -0.01224,-0.02039 0.0038,-0.08405 0.01793,-0.167347 0.02458,-0.251225 0.0056,-0.07061 0.0081,-0.141426 0.01215,-0.212139 0.01157,-0.57162 0.179186,-1.120793 0.298317,-1.675433 0.0141,-0.08364 0.03363,-0.166545 0.04231,-0.25092 0.0088,-0.08525 0.0059,-0.171313 0.0099,-0.256921 0.0068,-0.14302 0.01319,-0.286079 0.0227,-0.428946 0.03092,-0.46501 0.04719,-0.489933 0.06266,-0.938499 0.0047,-0.135446 0.0036,-0.271028 0.0055,-0.406542 -0.0038,-0.453611 -0.112666,-0.897521 -0.131128,-1.349935 -0.0069,-0.169668 -0.0077,-0.340175 0.0066,-0.509386 0.03124,-0.371182 0.08486,-0.506163 0.180983,-0.846269 0.144897,-0.433003 0.02144,-0.0839 0.177801,-0.478466 0.006,-0.01501 -0.0273,0.05851 -0.02126,0.04354 0.0303,-0.07513 0.01486,-0.241105 0.09406,-0.22409 2.779817,0.597165 1.276566,0.728658 1.977524,0.666878 0.04828,0.177116 0.01726,0.05373 0.07406,0.396341 0.02626,0.158366 0.05824,0.315908 0.07823,0.475187 0.04197,0.334524 0.08525,0.923393 0.0984,1.258678 0.009,0.2307 0.0088,0.461669 0.01323,0.692504 0.0066,0.958778 0.117673,1.91255 0.200074,2.866702 0.02022,0.234161 0.04443,0.468039 0.05924,0.702605 0.01436,0.227426 0.01884,0.455369 0.02826,0.683053 0.03566,0.522378 0.06131,1.04528 0.06057,1.568978 -3.1e-4,0.218372 -0.02067,0.34294 0.0083,0.538963 0.0024,0.01619 0.01109,0.0308 0.01664,0.0462 -0.192723,-0.751769 -0.04477,-0.379037 -1.947511,-0.234321 -0.08208,0.0062 -0.03139,0.169402 -0.08502,0.231842 -0.04506,0.05246 0.02473,-0.138366 0.05719,-0.199436 0.182772,-0.343941 0.404729,-0.545035 0.253066,-0.405333 -0.046,-0.14697 -0.0999,0.274234 -0.126039,0.199918 -0.01368,-0.03891 0.02684,-0.07839 0.03363,-0.119072 10e-4,-0.0063 -0.01059,-0.0091 -0.01117,-0.01546 -0.0044,-0.04842 -0.0025,-0.09721 -0.0036,-0.145818 -0.0024,-0.107284 -0.0045,-0.214573 -0.0068,-0.321859 -0.01138,-0.531706 -0.01541,-0.328284 0.0123,-0.920705 0.0073,-0.15541 0.01426,-0.31086 0.02493,-0.466074 0.01165,-0.169463 0.03048,-0.338382 0.04202,-0.507852 0.01095,-0.160901 0.01626,-0.322139 0.02544,-0.48315 0.01048,-0.183719 0.02236,-0.367355 0.03354,-0.551032 0.04331,-0.405655 0.06508,-0.71204 0.148984,-1.109692 0.03722,-0.176381 0.08439,-0.350673 0.135432,-0.523561 0.12582,-0.426192 0.29685,-0.839687 0.452605,-1.25544 0.09665,-0.255786 0.136415,-0.327505 0.190938,-0.566604 0.02283,-0.10011 0.0259,-0.195151 0.04715,-0.295476 0.01433,-0.06766 -0.01716,-0.188613 0.05085,-0.201144 0.642235,-0.118333 1.301287,-0.111914 1.95193,-0.167871 0.04126,0.130013 0.111986,0.254148 0.123791,0.39004 0.02808,0.323221 -0.03454,0.421242 -0.08258,0.66272 -0.09579,0.481404 0.02287,-0.04359 -0.152708,0.683 -0.153195,0.564211 -0.305282,1.128292 -0.427501,1.700216 -0.04555,0.21314 -0.09437,0.425847 -0.128419,0.641123 -0.06738,0.425956 -0.09496,0.917651 -0.127176,1.34487 -0.04247,0.697255 -0.09329,1.394032 -0.193706,2.08568 -0.02148,0.147931 -0.05184,0.294465 -0.07407,0.442285 -0.03189,0.21204 -0.09177,0.191572 -0.01402,0.21349 -0.165822,-0.292371 -0.189839,-0.741675 -0.497467,-0.877113 -0.543295,-0.239195 -0.99777,-0.145603 -1.294573,0.191903 -0.01167,0.01327 -0.01696,0.03241 -0.03121,0.04285 -0.0075,0.0055 0.0066,-0.01746 0.0089,-0.0265 0.0037,-0.0146 0.0059,-0.02952 0.0089,-0.04428 0.01997,-0.06622 0.04191,-0.131869 0.0599,-0.19865 0.06006,-0.222952 0.101844,-0.450566 0.161973,-0.673501 0.05027,-0.186381 0.103858,-0.371956 0.163088,-0.555686 0.0996,-0.308964 0.298784,-0.840409 0.411679,-1.146971 0.177692,-0.530848 0.317248,-1.073299 0.430447,-1.621309 0.08559,-0.414362 0.150454,-0.81459 0.22769,-1.230822 0.03916,-0.211056 0.08072,-0.421661 0.121079,-0.632492 0.137832,-0.694113 0.292484,-1.389451 0.559791,-2.047137 0.191623,-0.471471 0.123669,-0.205078 0.176674,-0.43085 0.225064,-0.733322 0.01446,-0.123125 1.971486,0.723718 0.01592,0.0069 -0.02517,0.06466 -0.01827,0.04874 0.01375,-0.0317 0.01715,-0.0692 0.03881,-0.09612 0.0075,-0.0094 0.01111,0.02239 0.01083,0.03442 -0.0029,0.126002 -0.01364,0.251703 -0.02045,0.377554 -0.05615,0.654387 -0.03447,0.460785 -0.119697,1.175256 -0.07901,0.662355 -0.09155,0.851967 -0.242348,1.520545 -0.09829,0.435776 -0.288528,1.080181 -0.411894,1.512417 -0.228503,0.747597 -0.463473,1.493467 -0.716648,2.233137 -0.07825,0.228607 -0.156155,0.457401 -0.240819,0.68371 -0.07732,0.206682 -0.1644,0.409585 -0.245034,0.614996 -0.05789,0.147478 -0.113692,0.295768 -0.170537,0.443652 -0.04005,0.1079 -0.08491,0.214135 -0.120154,0.3237 -0.01424,0.04427 -0.03212,0.09036 -0.02793,0.136675 0.0029,0.03194 0.03408,-0.05868 0.03209,-0.09069 -0.0075,-0.120655 0.04176,-0.292314 -0.05993,-0.357675 -1.283981,-0.82524 -1.07349,-0.787873 -1.783023,-0.197026 -0.0064,0.0038 -0.01918,0.01871 -0.01929,0.01127 -5.77e-4,-0.03813 0.0076,-0.07626 0.01775,-0.113026 0.03456,-0.125127 0.08146,-0.24662 0.116142,-0.371715 0.122831,-0.443092 -0.04843,-0.04683 0.205383,-0.68211 0.0624,-0.156174 0.139349,-0.306132 0.209023,-0.459197 0.217408,-0.447677 0.395009,-0.912793 0.563256,-1.380647 0.05912,-0.16439 0.111922,-0.33105 0.173349,-0.49459 0.157051,-0.418116 0.247954,-0.61502 0.422533,-1.017986 0.175756,-0.397499 0.183919,-0.398894 0.325176,-0.775967 0.03858,-0.102982 0.07878,-0.205539 0.110924,-0.310708 0.0454,-0.148534 0.05988,-0.31043 0.08566,-0.463252 0.04118,-0.68475 0.01949,-0.408753 1.992105,-0.356609 0.137634,0.0036 0.08631,0.262038 0.115213,0.396651 0.01213,0.0565 0.0058,0.210228 0.0048,0.280643 -7.69e-4,0.05408 -0.0011,0.10816 -0.0017,0.162239 0.0089,0.445424 -0.03498,0.890097 -0.0816,1.332412 -0.01992,0.188982 -0.04809,0.377091 -0.06509,0.566359 -0.0175,0.194874 -0.05491,0.938444 -0.06423,1.114562 -0.0078,0.382634 -0.01306,0.797604 -0.03446,1.179037 -0.03957,0.705319 -0.04452,0.405169 -0.0729,1.041073 -0.04849,1.086673 0.03668,-0.345212 -0.02951,0.708093 -0.06909,-0.392808 0.0042,0.358834 -0.01904,0.271237 -0.04768,-0.17949 0.04711,-0.467779 -0.122463,-0.543515 -0.403682,-0.180299 -1.329022,-0.647364 -1.705864,-0.178062 -0.02539,0.03162 -0.04641,0.06652 -0.06962,0.09978 0.03574,-0.14659 0.04072,-0.160527 0.07386,-0.339745 0.08946,-0.483787 0.04466,-0.326671 0.171963,-0.892707 0.103317,-0.45939 0.167322,-0.678539 0.289153,-1.130993 0.203639,-0.686364 0.509533,-1.341345 0.64672,-2.047469 0.07557,-0.388963 0.05772,-0.457863 0.05805,-0.844847 -0.009,-0.15332 -0.01768,-0.306664 -0.0271,-0.459961 -0.02417,-0.393143 -0.0329,-0.589618 -0.07598,-0.971758 -0.03937,-0.349201 -0.05918,-0.35959 -0.08387,-0.700721 -0.0066,-0.09131 -0.0063,-0.182987 -0.0094,-0.274481 0.0065,-0.08168 -0.06217,-0.253196 0.01936,-0.245041 0.697794,0.06979 1.379882,0.261295 2.054595,0.452479 0.04005,0.01135 -0.01855,0.08118 -0.02906,0.121467 -0.134039,0.513729 0.0035,-0.03446 -0.184409,0.637867 -0.0422,0.150954 -0.07934,0.303278 -0.119002,0.454916 -0.0443,0.185269 -0.08566,0.371267 -0.132904,0.555807 -0.130049,0.507986 -0.216764,0.813576 -0.395468,1.314009 -0.227515,0.637121 -0.504266,1.256685 -0.767236,1.879579 -0.263907,0.590465 -0.194013,0.419801 -0.405863,0.938848 -0.03976,0.0974 -0.08077,0.194332 -0.117909,0.292762 -0.01447,0.03834 -0.04074,0.158081 -0.03682,0.117291 0.09325,-0.971116 0.625689,-0.07286 -1.740488,-1.033494 -0.0171,0.01772 -0.02909,0.04253 -0.0513,0.05316 -0.01135,0.0054 0.0093,-0.0234 0.01373,-0.03518 0.0076,-0.02025 0.01484,-0.04066 0.02246,-0.06092 0.02122,-0.05645 0.04683,-0.111409 0.06404,-0.169207 0.01726,-0.05794 0.02481,-0.118366 0.03911,-0.177108 0.02738,-0.112433 0.05728,-0.224236 0.08592,-0.336355 0.04175,-0.139186 0.0824,-0.278707 0.125256,-0.417557 0.151933,-0.492269 0.128806,-0.382731 0.27123,-0.887122 0.137951,-0.488546 0.258255,-0.982007 0.382185,-1.47422 0.192665,-0.792896 0.48604,-1.57581 1.007066,-2.215326 0.08533,-0.104737 0.182958,-0.198826 0.274437,-0.298239 0.08087,-0.06959 0.157846,-0.143978 0.242617,-0.208757 0.533261,-0.407496 0.88051,-0.298157 1.713034,0.356323 0.190845,0.15003 0.03078,0.484685 0.0565,0.726076 0.0021,0.01927 0.01302,-0.03692 0.01487,-0.05621 0.0052,-0.05408 0.0041,-0.108584 0.0061,-0.162876 0.01509,0.05861 0.03396,0.116384 0.04528,0.175841 0.11884,0.623887 0.173491,1.255523 0.218076,1.888387 0.03734,0.529973 0.07041,1.196523 0.09848,1.724293 0.01417,0.761844 0.05053,1.523052 0.05997,2.285001 0.0051,0.414684 -0.0024,0.829041 -0.01039,1.243604 0.0061,0.04676 0.01247,0.09349 0.01834,0.140282 0.01965,0.156666 0.02966,0.232314 0.03988,0.394705 0.0031,0.04885 0.02794,0.189837 0.0047,0.146752 -0.128526,-0.238491 -0.06512,-0.673676 -0.326695,-0.744207 -0.526583,-0.141988 -1.080972,0.145939 -1.621459,0.218909 0.0097,-0.01711 0.03687,-0.06931 0.02897,-0.05132 -0.02072,0.04712 -0.05069,0.09024 -0.06747,0.138896 -0.05386,0.156166 -0.06047,0.27701 -0.02952,0.445568 0.01269,0.06914 0.06554,0.128518 0.07091,0.198608 0.0037,0.0483 -0.04375,-0.08644 -0.06563,-0.129662 -0.08541,-0.171365 -0.120959,-0.366023 -0.185344,-0.544286 -0.01103,-0.03055 -0.03159,-0.05706 -0.0428,-0.08755 -0.06592,-0.17935 -0.148199,-0.449912 -0.205983,-0.634764 -0.196936,-0.514024 -0.339684,-1.04642 -0.534624,-1.56111 -0.104988,-0.277193 -0.219449,-0.539976 -0.335061,-0.812653 -0.209145,-0.467953 -0.445304,-0.923045 -0.662175,-1.387368 -0.04564,-0.09771 -0.09621,-0.193431 -0.134593,-0.294218 -0.04951,-0.130025 -0.08577,-0.264719 -0.12866,-0.397078 -0.04276,-0.143939 -0.05188,-0.297283 -0.09379,-0.44192 -0.0089,-0.03059 -0.02194,-0.05981 -0.03291,-0.08971 -0.02271,-0.07456 -0.04707,-0.148639 -0.06813,-0.223682 -0.04725,-0.168348 -0.08915,-0.338157 -0.135352,-0.506797 -0.05015,-0.201669 -0.139056,-0.390263 -0.205091,-0.586478 -0.03153,-0.09368 -0.06116,-0.188047 -0.08773,-0.283251 -0.049,-0.17555 -0.07889,-0.326657 -0.116758,-0.503284 -0.01339,-0.04513 -0.02383,-0.09124 -0.04016,-0.135394 -0.01327,-0.03587 -0.03117,-0.06989 -0.04843,-0.104025 -0.05565,-0.11013 -0.135571,-0.254867 -0.20319,-0.353869 -0.04337,-0.0635 -0.08634,-0.128269 -0.140027,-0.183324 -0.04444,-0.04558 -0.101173,-0.07728 -0.15176,-0.115923 -0.0945,-0.08139 -0.186789,-0.165425 -0.283501,-0.244177 -0.08638,-0.07034 -0.178945,-0.132836 -0.265542,-0.20291 -0.238993,-0.193391 -0.458894,-0.411072 -0.702568,-0.598637 -0.04815,-0.03706 -0.09968,-0.06952 -0.149525,-0.104278 -0.07376,-0.05458 -0.148053,-0.10845 -0.221284,-0.163741 -0.07902,-0.05966 -0.155224,-0.123048 -0.235433,-0.181093 -0.05728,-0.04145 -0.118152,-0.0777 -0.176782,-0.117216 -0.07939,-0.05351 -0.157101,-0.109521 -0.23727,-0.161856 -0.167117,-0.109098 -0.214018,-0.131044 -0.385464,-0.225772 -0.03075,-0.01116 -0.0617,-0.02183 -0.09226,-0.03349 -0.03806,-0.01453 -0.07571,-0.03007 -0.113583,-0.04508 -0.263471,-0.104412 0.316566,0.131841 0.359354,0.0478 0.303938,-0.596962 0.06237,-1.456124 0.526081,-1.939566 0.230952,-0.24078 0.337297,0.575747 0.505945,0.863621 -0.02336,0.156228 -0.04844,0.312208 -0.07007,0.468684 -3.99e-4,0.0029 0.0037,0.0048 0.0042,0.0077 0.0035,0.0179 0.0073,0.03591 0.0078,0.05414 0.0025,0.07982 0.0038,0.159744 0.0013,0.239559 -0.01312,0.419722 -0.02186,0.411148 -0.07315,0.834768 -0.177075,0.924484 0.03083,-0.112742 -0.153366,0.681661 -0.0069,0.02975 -0.01194,0.06048 -0.0106,0.09099 -0.01272,-0.0193 0.0209,-0.01957 0.02237,-0.01134 0.0075,0.04202 0.01009,0.08477 0.01514,0.127152 9e-6,-0.01655 -0.0063,-0.06494 2.8e-5,-0.04964 0.01746,0.04238 0.02221,0.08896 0.03436,0.133152 0.0604,0.219608 0.146927,0.175831 0.03278,0.608864 -0.05011,0.190097 -0.19341,0.342322 -0.290115,0.513484 0.242431,-0.371262 0.23291,-0.265774 0.299834,-0.614888 0.0053,-0.02749 0.0031,-0.05589 0.0046,-0.08383 1.36e-4,-0.0025 8.6e-5,-0.01015 2.71e-4,-0.0076 0.0022,0.03005 0.0028,0.08473 0.0033,0.107814 0.01021,0.25857 -0.106085,0.475327 -0.170493,0.714588 -0.03502,0.188096 0.03866,-0.20264 -0.05122,0.227085 -0.01032,0.04935 -0.01562,0.09967 -0.02618,0.148975 -0.02074,0.09685 -0.04648,0.192567 -0.06767,0.289313 -0.01554,0.07093 -0.02576,0.143002 -0.0425,0.21366 -0.02308,0.09739 -0.05128,0.193491 -0.07692,0.290237 -0.01007,0.06377 -0.02199,0.118859 -0.02152,0.183068 8.5e-5,0.01168 0.004,0.02301 0.006,0.03451 0.0022,0.02543 0.0077,0.05079 0.0067,0.0763 -0.01017,0.278826 -0.01463,0.279926 -0.04586,0.505702 0.0062,-0.03339 -0.0052,-0.07606 0.01868,-0.100159 0.01618,-0.01629 0.01054,0.04476 0.01375,0.0675 0.0093,0.06604 0.01808,0.132226 0.02385,0.198677 0.0088,0.101556 0.01672,0.257991 0.0076,0.364069 -0.0055,0.06446 -0.0178,0.12816 -0.0267,0.19224 -0.47093,-1.34057 -0.06272,-0.689588 -0.02057,-0.520982 0.02414,0.09655 0.04768,0.193563 0.06222,0.29202 0.02065,0.139887 0.0072,0.307215 0.0036,0.450068 -5.29e-4,0.03413 -0.0035,0.0683 -0.0016,0.10238 5.87e-4,0.01067 0.0023,-0.04179 0.0055,-0.03158 0.0085,0.02765 0.0085,0.05728 0.01136,0.08608 0.0053,0.05337 0.0078,0.107006 0.01328,0.16037 0.0012,0.01193 0.0044,0.02357 0.0067,0.03536 0.0047,0.04626 0.0093,0.09251 0.014,0.138767 0.01728,0.09463 0.01609,0.191267 0.02833,0.286423 0.0019,0.0147 0.01109,0.02767 0.01389,0.04222 0.0112,0.05822 0.019,0.117035 0.02801,0.175629 0.02595,0.168747 -0.0013,0.109045 0.03588,0.181513 0.04293,0.242824 0.111822,0.481601 0.11384,0.730199 0.0015,0.186595 -0.0112,0.212951 -0.04375,0.382274 0.05248,-0.23111 0.02098,-0.06557 -0.04715,-0.605664 -0.0017,-0.01328 -0.02011,-0.04962 -0.01502,-0.03724 0.08876,0.215518 0.118555,0.250904 0.147119,0.49584 0.0093,0.07935 0.0023,0.159768 0.0035,0.239652 -0.01901,0.106648 -0.01075,0.202609 -0.0089,0.30961 0.0069,0.143774 -0.006,0.284087 -0.02075,0.427417 -0.0067,0.06493 -0.01613,0.107428 -0.01142,0.168085 -0.02757,0.358879 -0.0011,0.06935 -0.03027,0.306891 -4.53e-4,0.0037 0.0024,-0.0071 0.0031,-0.0107 0.0015,-0.0071 -0.0032,-0.01875 0.0035,-0.02161 0.006,-0.0025 0.0013,0.01295 0.0016,0.01945 0.0011,0.02342 0.0017,0.04687 0.0025,0.0703 -0.0011,-0.0272 -0.01698,-0.105165 -0.0033,-0.08161 0.0179,0.0309 0.01324,0.07024 0.0173,0.105718 0.0074,0.06468 0.01033,0.129811 0.01705,0.194568 6.42e-4,0.0062 0.0048,0.02425 0.005,0.01802 0.002,-0.05437 -0.0196,-0.100438 -0.03517,-0.152672 0.049,0.01978 -0.11834,-0.182293 -0.08234,-0.143271 0.07388,0.08009 0.143592,0.182615 0.19731,0.275158 0.02755,0.04747 0.04913,0.09816 0.07369,0.147241 0.0029,0.0044 0.0067,0.0083 0.0088,0.01311 0.007,0.01642 0.153666,0.380397 0.05071,0.117056 -0.04821,-0.12332 0.07456,0.157862 0.11606,0.24948 -0.0018,-0.02961 -0.125857,-0.24225 -0.09615,-0.180796 0.04812,0.09955 0.102376,0.196024 0.154573,0.2935 0.0035,0.0065 -0.0095,-0.02769 -0.0067,-0.02093 0.02142,0.05114 0.04231,0.102505 0.06347,0.153758 0.01673,0.06582 0.03346,0.131641 0.0502,0.197462 0.514683,2.024564 -2.626224,-1.666364 -2.080913,0.350166 l 0,0 c 0.01498,0.05538 0.02995,0.110762 0.04493,0.166143 0.01241,0.02692 0.05353,0.105489 0.03722,0.08074 -0.01876,-0.02846 -0.03052,-0.06097 -0.04464,-0.09199 -0.01258,-0.02764 -0.05249,-0.109042 -0.03542,-0.08393 0.04666,0.06862 0.134007,0.132921 0.124807,0.215387 -0.0084,0.07505 -0.170201,-0.297708 -0.179315,-0.317895 -0.0079,-0.0209 -0.03551,-0.08176 -0.02382,-0.0627 0.03286,0.05355 0.06836,0.107057 0.08772,0.166827 0.01429,0.04413 -0.0509,-0.07775 -0.07221,-0.118945 -0.338432,-0.654414 0.111466,0.179538 -0.115875,-0.243483 0.03047,0.05034 0.02713,0.04797 0.0713,0.102294 0.0043,0.0052 0.01897,0.01909 0.01473,0.01385 -0.03967,-0.04889 -0.08216,-0.09548 -0.121105,-0.144948 -0.05833,-0.0741 -0.115451,-0.18563 -0.157421,-0.258719 -0.02949,-0.07685 -0.06434,-0.151852 -0.08847,-0.230549 -0.03822,-0.124647 -0.05569,-0.249686 -0.06705,-0.378615 -3.04e-4,-0.0034 0.0057,0.01223 0.0055,0.0088 -0.0057,-0.09522 -0.06782,-0.184442 -0.03926,-0.283473 -0.0037,-0.105209 -0.008,-0.209445 -0.0019,-0.314825 0.0025,-0.04233 0.0079,-0.08445 0.01262,-0.126584 8.2e-4,-0.0073 -0.0026,-0.02457 0.0041,-0.0216 0.0077,0.0034 0.0023,0.01661 0.0034,0.02492 0.0023,-0.173657 -0.0015,-0.162055 0.01516,-0.333916 0.0031,-0.03191 0.0049,-0.06419 0.01236,-0.09538 0.0018,-0.0074 0.0044,0.02975 0.0051,0.02219 6.99e-4,-0.0074 -1.14e-4,-0.146229 -1.52e-4,-0.15466 -0.0023,-0.150843 -0.01188,-0.304006 0.01145,-0.453542 0.0097,0.131077 0.0025,0.144049 0.05069,0.277323 0.01231,0.03409 0.06497,0.129604 0.04839,0.09737 -0.02343,-0.04555 -0.05872,-0.08714 -0.06895,-0.137324 -0.109225,-0.535888 -0.117018,-0.427932 -0.06061,-0.723622 -0.01572,0.100289 -0.02152,0.103304 -0.01523,0.20816 5.35e-4,0.0089 0.0079,0.03457 0.0078,0.02564 -9.31e-4,-0.106559 -0.05186,-0.207088 -0.05587,-0.313593 -0.01933,-0.08265 -0.0411,-0.164762 -0.05798,-0.247944 -0.01697,-0.08363 -0.02444,-0.168926 -0.03793,-0.253191 -0.01411,-0.0881 -0.0309,-0.175791 -0.04309,-0.264177 -0.0114,-0.08265 6.69e-4,-0.167783 -0.02508,-0.249036 -0.02096,-0.248303 -0.06757,-0.495816 -0.05813,-0.745873 9.12e-4,-0.03599 0.0017,-0.07198 0.0027,-0.107973 5.87e-4,-0.02086 -0.0022,-0.04216 0.0021,-0.06258 0.0018,-0.0083 0.0036,0.01666 0.0059,0.02488 0.105048,0.385807 0.07961,0.279122 -0.01244,-0.451827 -0.005,0.04546 -0.01168,0.09076 -0.01508,0.13637 -6.84e-4,0.0092 0.0016,0.03654 0.0029,0.02744 0.0053,-0.03729 -0.0058,-0.124177 -0.0093,-0.149498 -0.05249,-0.388296 -0.03004,-0.06644 -0.03951,-0.599947 0.0059,-0.04134 0.0038,-0.08466 0.01771,-0.124016 0.0048,-0.01342 0.01163,0.0553 0.01171,0.04107 4.04e-4,-0.06924 -0.01007,-0.138198 -0.01074,-0.20743 -0.0025,-0.261378 0.02617,-0.519516 0.09034,-0.773243 0.08355,-0.287803 0.01006,-0.01944 0.102303,-0.437085 0.01357,-0.06144 0.03203,-0.121737 0.0452,-0.18326 0.01808,-0.08445 0.0309,-0.169954 0.04852,-0.254497 0.02314,-0.111041 0.05688,-0.219709 0.07883,-0.33102 0.04894,-0.162324 0.02925,-0.103852 0.07372,-0.231909 0.04164,-0.119926 0.06054,-0.211005 0.01178,0.140946 0.0021,-0.01011 5.52e-4,-0.0015 -5.04e-4,-0.02527 -10e-4,-0.02266 -0.003,-0.04529 -0.003,-0.06797 1.46e-4,-0.04768 -0.0036,-0.09585 0.0036,-0.142986 0.05931,-0.389896 0.06662,-0.299665 0.315034,-0.692741 -0.09241,0.166893 -0.230114,0.315818 -0.277217,0.500678 -0.04332,0.170003 0.01068,0.350708 0.01559,0.526074 4.4e-5,0.0016 -5.35e-4,-0.0031 -9.87e-4,-0.0046 -0.0127,-0.04246 -0.02642,-0.08462 -0.03848,-0.127268 -0.033,-0.11678 -0.04231,-0.239836 -0.08464,-0.354085 -0.01371,-0.115414 -0.03744,-0.301114 -0.03828,-0.401715 -0.002,-0.246784 0.01892,-0.378526 0.07263,-0.615571 0.01185,-0.05232 0.03284,-0.102228 0.04554,-0.154344 0.01873,-0.07685 0.03244,-0.154837 0.04866,-0.232256 0.03693,-0.270456 0.04752,-0.296534 0.05629,-0.573498 0.01127,-0.355844 -0.01607,-0.36898 0.03575,-0.721392 0.01095,-0.07445 0.0341,-0.292853 0.05186,-0.219725 0.02597,0.106926 -0.01686,0.219421 -0.02529,0.329131 1.008427,1.582607 0.111347,0.590714 0.976169,-1.185082 0.06504,-0.13355 0.895017,0.261478 0.973361,0.297273 0.09126,0.05151 0.183731,0.100913 0.273766,0.154527 0.218473,0.130097 0.296971,0.187311 0.501066,0.326882 0.09401,0.06429 0.189479,0.126485 0.281841,0.193108 0.135896,0.09802 0.261304,0.21013 0.400887,0.303282 0.089,0.06506 0.179974,0.127516 0.267012,0.195185 0.222929,0.173318 0.423449,0.373077 0.642694,0.550657 0.116961,0.09474 0.240157,0.181639 0.356443,0.277202 0.116814,0.096 0.228405,0.198179 0.342607,0.297268 0.138601,0.137842 0.287374,0.26616 0.415804,0.413525 0.09473,0.108692 0.17261,0.231228 0.251361,0.352 0.24579,0.376944 0.436748,0.792698 0.541005,1.230862 0.0343,0.1628 0.06377,0.32914 0.117229,0.487169 0.08674,0.25643 0.198814,0.504683 0.263842,0.768478 0.02357,0.08635 0.04784,0.172513 0.07072,0.259051 0.01674,0.06333 0.03056,0.127418 0.04811,0.190524 0.07085,0.254704 0.175151,0.502949 0.198813,0.768578 0.04369,0.210682 0.01041,0.09501 0.146084,0.385762 0.229585,0.491997 0.481027,0.973594 0.699627,1.470749 0.142323,0.336619 0.250315,0.583216 0.380211,0.928728 0.203249,0.540626 0.356342,1.098147 0.560454,1.638504 0.02942,0.09425 0.05918,0.188405 0.08827,0.282764 0.0172,0.05579 0.0307,0.112795 0.05058,0.167689 0.248965,0.687276 0.03445,0.03416 0.158418,0.4341 0.01138,0.03673 0.02776,0.07207 0.03571,0.109689 0.0023,0.01071 -0.0122,-0.01819 -0.01829,-0.02728 0.04305,0.112716 0.112864,0.215669 0.143165,0.33246 0.09287,0.357965 0.04986,0.710837 -0.136074,1.028992 -0.553241,0.09564 -1.113197,0.415498 -1.659722,0.28692 -0.379932,-0.08938 -0.31906,-0.610386 -0.349437,-0.909036 -0.05526,-0.543308 -0.0038,0.102197 -0.05449,-0.609665 0.0075,-0.386779 0.01513,-0.773401 0.01043,-1.160297 -0.009,-0.738817 -0.0446,-1.476899 -0.05742,-2.215634 -0.02732,-0.514294 -0.05889,-1.150619 -0.09473,-1.668014 -0.03173,-0.458085 -0.05729,-0.766359 -0.112391,-1.210675 -0.01366,-0.11014 -0.02733,-0.220442 -0.0482,-0.329445 -0.01672,-0.08732 -0.04297,-0.172543 -0.06446,-0.258814 -0.01545,-0.137615 -0.04244,-0.274421 -0.04636,-0.412845 -0.0023,-0.08254 0.002,-0.324633 0.02769,-0.246156 0.06198,0.189457 -0.08026,0.481034 0.08542,0.591882 0.429061,0.287068 0.980346,0.326508 1.480182,0.455602 0.02842,0.0073 0.05725,-0.02847 0.06819,-0.0557 0.0094,-0.0235 -0.04194,0.02837 -0.06291,0.04256 -0.03182,0.02867 -0.06727,0.05376 -0.09547,0.086 -0.363866,0.416031 -0.531886,0.952389 -0.659946,1.479332 -0.130933,0.519961 -0.258617,1.040989 -0.404812,1.55695 -0.136477,0.481661 -0.135643,0.453357 -0.275109,0.900091 -0.03417,0.10944 -0.06703,0.219282 -0.100541,0.328923 -0.04781,0.187146 -0.143709,0.571712 -0.19875,0.745341 -0.02577,0.08129 -0.05964,0.159825 -0.09206,0.238701 -0.09287,0.225939 -0.202024,0.441502 -0.359159,0.630845 -0.627586,-0.210562 -1.307663,-0.303864 -1.882757,-0.631684 -0.120201,-0.06852 0.02432,-0.276261 0.05222,-0.411778 0.02195,-0.106628 0.176926,-0.477106 0.207119,-0.550789 0.223486,-0.54539 0.158357,-0.387298 0.411977,-0.953482 0.08146,-0.192956 0.163075,-0.38585 0.244389,-0.578869 0.158458,-0.376139 0.324536,-0.759259 0.46366,-1.143282 0.157615,-0.435065 0.232332,-0.695814 0.346588,-1.142386 0.05107,-0.199621 0.09619,-0.400721 0.144283,-0.601081 0.237279,-0.897302 0.04329,-0.188956 0.24031,-0.860468 0.01816,-0.06191 0.0353,-0.124127 0.05161,-0.186551 0.01146,-0.04389 -0.0135,-0.136208 0.03169,-0.132336 0.701427,0.0601 1.389443,0.230895 2.088518,0.313994 0.02191,0.0026 -0.0022,-0.04408 -0.0032,-0.06612 -3.23e-4,0.03565 -0.0034,0.07139 -9.68e-4,0.106963 0.0185,0.266235 0.05444,0.436376 0.08552,0.717624 0.06143,0.55574 0.08686,1.114469 0.111885,1.672743 -0.0074,0.223945 -0.0014,0.448728 -0.02205,0.671836 -0.05744,0.619081 -0.232824,1.219045 -0.431843,1.805071 -0.05421,0.15964 -0.117866,0.31594 -0.17368,0.475027 -0.05196,0.148116 -0.09975,0.297666 -0.149625,0.446499 -0.105821,0.391187 -0.170368,0.613793 -0.259962,1.008372 -0.0352,0.155012 -0.06689,0.310823 -0.097,0.466902 -0.06758,0.350284 -0.07209,0.468214 -0.15732,0.799465 -0.0263,0.10223 -0.06074,0.20219 -0.09112,0.303285 -0.05373,0.111799 -0.09785,0.228745 -0.161185,0.335398 -0.04446,0.07487 -0.07334,0.205058 -0.160414,0.206181 -0.57077,0.0074 -1.176384,0.03872 -1.702737,-0.182152 -0.227259,-0.09536 -0.148239,-0.678368 -0.131194,-0.91117 0.04598,-0.665648 -0.01501,0.27183 0.02917,-0.70276 0.04102,-0.905057 0.01886,-0.0843 0.07022,-0.987853 0.02031,-0.357282 0.0281,-0.8584 0.03593,-1.211451 0.01764,-0.331615 0.04584,-0.91628 0.07514,-1.244311 0.01578,-0.176695 0.04213,-0.352296 0.06109,-0.528679 0.04107,-0.382163 0.08238,-0.766323 0.07185,-1.151376 6.96e-4,-0.06214 0.0012,-0.124283 0.0021,-0.18642 3.11e-4,-0.02072 -0.0125,-0.07731 0.0016,-0.06216 0.104659,0.112237 -0.419393,0.413183 0.114753,0.403413 1.965649,-0.03595 2.067413,-1.052481 1.961832,-0.263652 -0.04744,0.280866 -0.09503,0.550402 -0.180108,0.824373 -0.03893,0.125383 -0.08689,0.247813 -0.133426,0.370578 -0.159345,0.420354 -0.17214,0.434369 -0.353367,0.844128 -0.134385,0.308722 -0.248288,0.559812 -0.366927,0.876105 -0.06557,0.174826 -0.122116,0.35292 -0.18558,0.528523 -0.188492,0.521555 -0.388438,1.039576 -0.629537,1.539496 -0.07315,0.15118 -0.173318,0.339187 -0.222541,0.504591 -0.03953,0.132848 -0.06223,0.270241 -0.09969,0.403689 -0.0155,0.05521 -0.0436,0.106364 -0.05898,0.16161 -0.17187,0.617547 0.02325,0.07289 -0.201943,0.652885 -0.17805,0.184999 -0.277487,0.547867 -0.53415,0.554998 -0.51706,0.01437 -1.030922,-0.224691 -1.469245,-0.499337 -0.144833,-0.09075 -0.105678,-0.327834 -0.122354,-0.497933 -0.03727,-0.380153 0.12661,-0.782564 0.256647,-1.129556 0.06028,-0.156631 0.119324,-0.313742 0.180832,-0.469894 0.07014,-0.178058 0.146912,-0.353516 0.21409,-0.532711 0.08053,-0.214806 0.154596,-0.431994 0.22893,-0.649021 0.24349,-0.710902 0.469394,-1.427786 0.689743,-2.146136 0.0891,-0.311414 0.293956,-1.011235 0.369884,-1.337492 0.13927,-0.598434 0.142528,-0.7372 0.217081,-1.357799 0.07854,-0.65382 0.05738,-0.462534 0.109124,-1.05223 0.0058,-0.09705 0.01214,-0.19406 0.01734,-0.291139 0.0061,-0.114248 8.86e-4,-0.229514 0.01667,-0.342832 0.01543,-0.110812 0.04681,-0.218944 0.0766,-0.326788 0.01104,-0.03997 0.0056,-0.126482 0.04561,-0.115729 0.679843,0.182552 1.347255,0.41266 2.003979,0.666086 0.03118,0.01203 -0.01982,0.06384 -0.02973,0.09576 -0.03582,0.10226 -0.06719,0.20619 -0.107466,0.306782 -0.216863,0.541684 0.03125,-0.197068 -0.208298,0.498221 -0.15878,0.460862 -0.259026,0.938119 -0.354279,1.415363 -0.0389,0.202981 -0.079,0.405736 -0.116707,0.608942 -0.08663,0.466854 -0.148505,0.855492 -0.245892,1.32078 -0.133602,0.638313 -0.29854,1.269993 -0.509077,1.887507 -0.177932,0.482621 -0.367641,0.962769 -0.501616,1.460158 -0.03827,0.142067 -0.06797,0.286303 -0.101962,0.429455 -0.03102,0.122247 -0.05996,0.245037 -0.09305,0.36674 -0.0201,0.07394 -0.04432,0.146691 -0.06648,0.220036 -0.0674,0.201218 -0.129498,0.395024 -0.248603,0.573647 -0.05324,0.07984 -0.08331,0.200539 -0.175103,0.228516 -1.571858,0.479076 -1.188891,0.469057 -1.894182,-0.681351 0.0015,-0.09788 -0.0023,-0.196006 0.0046,-0.293653 0.01819,-0.254283 0.06282,-0.417883 0.100842,-0.674084 0.07164,-0.482747 0.08905,-0.691071 0.128999,-1.203554 0.02001,-0.256708 0.03544,-0.513753 0.05315,-0.770629 0.0476,-0.609543 0.0652,-0.993873 0.162312,-1.598851 0.03751,-0.233697 0.09042,-0.464693 0.140224,-0.696084 0.125272,-0.582052 0.277454,-1.157029 0.434802,-1.731062 0.179589,-0.722691 0.0043,0.0081 0.149324,-0.668962 0.01451,-0.06774 0.03209,-0.134797 0.04927,-0.201912 0.0059,-0.02309 0.01988,-0.09249 0.01999,-0.06866 0.0028,0.595709 -0.0862,0.237784 0.09055,0.716404 0.6396,-0.07618 1.282801,-0.126588 1.918801,-0.228549 0.0272,-0.0044 0.01854,-0.108593 0.01437,-0.08137 -0.02661,0.173725 -0.06135,0.382684 -0.103386,0.5477 -0.08249,0.323804 -0.126799,0.416237 -0.242498,0.722425 -0.09057,0.241746 -0.184784,0.482138 -0.273091,0.724719 -0.06947,0.19084 -0.165457,0.461972 -0.209783,0.662377 -0.06923,0.313016 -0.0882,0.568779 -0.123926,0.889589 -0.01089,0.178586 -0.02236,0.357137 -0.03266,0.535757 -0.0105,0.181987 -0.01738,0.36419 -0.02976,0.546058 -0.01011,0.148449 -0.02743,0.296345 -0.03769,0.444783 -0.01033,0.149383 -0.01619,0.299041 -0.02407,0.448574 -0.0265,0.503208 -0.02178,0.258604 -0.01053,0.784795 0.0038,0.21485 0.01583,0.540724 -0.0041,0.758109 -0.02127,0.232276 -0.08756,0.532323 -0.189083,0.746607 -0.04244,0.08958 -0.102369,0.169765 -0.153553,0.254648 -0.0356,0.04219 -0.12803,0.177515 -0.106803,0.126559 0.05106,-0.122558 0.13912,-0.226602 0.198042,-0.345578 0.0152,-0.0307 0.03429,-0.132468 0.02274,-0.100219 -0.03791,0.105836 0.0094,0.306465 -0.101994,0.321472 -1.917535,0.258294 -1.73965,0.515585 -2.012068,-0.318558 -0.01632,-0.09994 -0.03832,-0.199118 -0.04894,-0.299824 -0.03288,-0.311734 -0.01397,-0.354326 -0.01282,-0.658123 0.0019,-0.502428 -0.02579,-1.003941 -0.05899,-1.505124 -0.0075,-0.196604 -0.01008,-0.393456 -0.02247,-0.589813 -0.01462,-0.231817 -0.03855,-0.462953 -0.05853,-0.694369 -0.08665,-1.003409 -0.201214,-2.006511 -0.207912,-3.014795 -0.01003,-0.621153 -4.43e-4,-0.56585 -0.04372,-1.174118 -0.0112,-0.157415 -0.02067,-0.31513 -0.04022,-0.471727 -0.01593,-0.127624 -0.109709,-0.646487 -0.134644,-0.812501 -0.01679,-0.111777 -0.02976,-0.224093 -0.04465,-0.33614 -0.0014,-0.960335 -0.08021,-0.04556 1.981714,0.282369 0.07215,0.01147 0.01044,-0.214949 0.08251,-0.203031 0.05498,0.0091 -0.07614,0.207709 -0.09786,0.265041 -0.02325,0.06138 -0.04235,0.124245 -0.06353,0.186367 -0.01873,0.0555 -0.08464,0.241453 -0.09352,0.303407 -0.03609,0.251872 -0.0027,0.412904 0.02639,0.682277 0.09637,0.893824 0.04698,0.227853 0.09882,1.148236 -0.0028,0.162977 -0.0025,0.326037 -0.0084,0.488932 -0.01939,0.535702 -0.02848,0.422605 -0.06248,0.93527 -0.0193,0.290979 -0.02674,0.643948 -0.06033,0.932474 -0.0132,0.1134 -0.03938,0.224912 -0.05907,0.337367 -0.06669,0.30828 -0.04851,0.232414 -0.119894,0.531181 -0.06519,0.272842 -0.138879,0.54396 -0.134902,0.827491 -0.01781,0.281144 -0.03626,0.58368 -0.08198,0.860976 -0.01056,0.06407 -0.02927,0.126609 -0.04767,0.188885 -0.06965,0.235803 -0.06371,0.211093 -0.140675,0.388066 -0.01766,0.04158 -0.03442,0.08356 -0.05298,0.124741 -0.008,0.01768 -0.02058,0.03332 -0.02658,0.05176 -0.01519,0.0467 -0.02317,0.09547 -0.03665,0.142693 -0.0038,0.01342 -0.01125,0.02563 -0.01521,0.03901 -0.04766,0.161102 -0.04192,0.347602 -0.139594,0.484293 -0.152737,0.213744 -0.389574,0.352552 -0.584362,0.528828 -0.332789,-0.03411 -0.720639,0.08417 -0.998367,-0.102324 -0.496961,-0.333704 -0.471465,-0.611552 -0.475136,-0.987738 -0.0011,-0.135314 2.84e-4,-0.270673 0.0051,-0.405906 0.0043,0.0241 0.0088,0.04816 0.01289,0.07229 0.0036,0.0212 -0.0089,-0.04214 -0.0114,-0.0635 -0.0079,-0.06901 -0.01833,-0.137996 -0.01974,-0.207442 -0.0032,-0.158867 0.01873,-0.31912 0.06115,-0.471984 0.0021,0.02435 0.0037,0.09736 0.0063,0.07306 0.0048,-0.04429 6.16e-4,-0.0891 2.44e-4,-0.133643 -0.0022,-0.260915 -0.02437,-0.521421 -0.01363,-0.782449 0.02522,-0.31917 0.0076,-0.154696 0.044,-0.426116 0.0088,-0.06525 0.01521,-0.130843 0.02592,-0.195802 0.0036,-0.02194 0.01534,-0.04232 0.01701,-0.06449 0.008,-0.10622 -0.0035,-0.213257 0.0028,-0.319551 -1.4e-5,-0.03074 5.63e-4,-0.109699 -0.0014,-0.145021 -0.0056,-0.0989 -0.01975,-0.183017 -0.01353,-0.285944 0.01658,-0.27449 0.0273,-0.262202 0.102972,-0.502448 -0.0076,0.02642 -0.01638,0.05254 -0.02285,0.07927 -0.0015,0.0063 -0.0026,0.02562 -10e-4,0.01935 0.0047,-0.01871 0.0035,-0.07493 0.01036,-0.05691 0.01,0.02621 -5.85e-4,0.05612 3.2e-5,0.08416 0.0011,0.04991 -4.34e-4,-0.194935 -7.63e-4,-0.149764 -0.0046,-0.125474 -0.01021,-0.248586 4.55e-4,-0.37435 0.004,-0.04692 0.01287,-0.0933 0.02023,-0.139802 0.0019,-0.01173 0.0071,-0.04673 0.0074,-0.03486 0.0011,0.04056 -0.0034,0.08108 -0.0051,0.121627 3.69e-4,-0.09019 -2.46e-4,-0.09658 0.003,-0.190558 8.49e-4,-0.02474 0.0019,-0.04948 0.0034,-0.07419 2.79e-4,-0.0045 5.15e-4,-0.01741 0.0021,-0.01323 0.0092,0.0249 -9.96e-4,0.05479 0.01612,0.07796 -0.03399,-0.158391 -0.06524,-0.324484 -0.0437,-0.486614 1.32e-4,-9.92e-4 9.08e-4,0.0018 0.0014,0.0027 0.0013,0.0058 0.0026,0.01169 0.004,0.01753 0.0034,0.0157 0.01165,0.06311 0.01024,0.0471 -0.0017,-0.01942 -0.0083,-0.03812 -0.01115,-0.0574 -0.02214,-0.150772 -0.04078,-0.295637 -0.04081,-0.447514 0.0082,-0.189172 2.77e-4,-0.14097 0.02823,-0.314276 0.0024,-0.0151 0.0088,-0.06018 0.0094,-0.0449 0.0018,0.04456 -0.0022,0.08921 -0.0058,0.133651 -0.0036,0.04277 0.0035,-0.181541 -4.26e-4,-0.128746 7e-6,-0.144567 0.0028,-0.289139 0.0014,-0.433684 -0.0052,-0.125171 -0.01057,-0.249978 -0.0061,-0.375323 0.0064,-0.177266 0.03024,-0.353222 0.05036,-0.529237 0.0074,-0.03849 0.0049,-0.08029 0.02216,-0.115467 0.0075,-0.01534 0.0084,0.06738 0.0098,0.05034 0.0038,-0.04649 -0.0015,-0.09328 -0.0024,-0.139922 -0.0036,-0.183471 -0.01062,-0.367173 0.0027,-0.550496 0.0072,-0.06418 0.01306,-0.128532 0.02163,-0.192546 0.0013,-0.0097 -8.22e-4,0.0392 2.18e-4,0.02944 1.1e-5,-1.09e-4 0.01437,-0.196238 0.02092,-0.219788 0.0028,-0.01014 0.0054,0.04157 0.0056,0.03105 0.0011,-0.03952 -0.0022,-0.07904 -0.0033,-0.118568 -8.67e-4,-0.146595 -0.0037,-0.162153 0.007,-0.312366 0.02268,-0.32085 0.0021,-0.01699 0.01786,-0.148863 0.0098,-0.08151 0.01356,-0.163824 0.0273,-0.244758 0.0098,-0.05746 0.02868,-0.112977 0.04303,-0.169465 -0.02268,0.104382 -0.03038,0.141164 -0.03349,0.243075 -2.01e-4,0.0066 0.0014,-0.01314 0.0012,-0.01973 -0.0028,-0.09816 -0.0088,-0.163961 -0.01593,-0.266103 -0.146071,-2.083878 1.93051,-2.273025 2.101659,-0.191087 z"
         id="path3005"
         style="fill:#ff0000;fill-opacity:1;fill-rule:nonzero;stroke:none" />
    </mask>
    <clipPath
       clipPathUnits="userSpaceOnUse"
       id="clipPath5312">
      <path
         inkscape:connector-curvature="0"
         d="m 22.747682,2.9584409 c 0.04142,0.1435005 0.08756,0.2857215 0.124253,0.4305016 0.384952,1.518813 -0.135215,-0.3990998 0.263797,1.1152185 0.198053,0.751648 0.170882,0.5215089 0.331379,1.3414341 0.04565,0.2332398 0.07964,0.4686125 0.119466,0.7029188 0.176027,1.2282961 0.382364,2.451765 0.553725,3.6807521 0.09987,0.623965 0.127555,1.254745 0.112108,1.885545 -0.0092,0.374767 -0.03874,0.748622 -0.04812,1.123432 6.13e-4,0.07941 7.59e-4,0.158818 0.0018,0.23822 0.0046,0.342204 0.0182,0.354487 -0.03102,0.762979 -0.07562,0.627483 -0.08477,0.380993 -0.178924,0.994885 -0.01981,0.129152 -0.02627,0.260001 -0.0394,0.390002 -0.0043,0.587085 0.003,0.118047 -0.02176,0.818811 -0.0051,0.145435 -0.0037,0.291149 -0.01287,0.436387 -0.0104,0.165154 -0.03079,0.329526 -0.04571,0.494333 -0.04794,0.529534 -0.01097,0.215513 -0.08999,0.776074 -0.02967,0.133067 -0.05435,0.267344 -0.08901,0.3992 -0.03076,0.117026 -0.07495,0.230193 -0.107069,0.346852 -0.0081,0.02938 -0.008,0.06046 -0.01334,0.09045 -0.01127,0.06285 -0.02802,0.124761 -0.03661,0.188037 -0.0036,0.02663 0.0015,0.05378 1.48e-4,0.08061 -0.0034,0.06645 -0.0097,0.13271 -0.01459,0.199065 0.0047,0.389236 -0.128258,0.759215 -0.326266,1.090262 -0.146493,0.244922 -0.147218,0.137226 -0.143233,0.24502 -0.150019,0.291495 -0.315909,0.501082 -0.596351,0.693861 -0.09259,0.06365 -0.202827,0.187697 -0.305582,0.142252 -1.773693,-0.784442 -1.639417,-0.430675 -1.691675,-1.435562 -0.0076,-0.05416 -0.01791,-0.108006 -0.02271,-0.162482 -0.0822,-0.933267 0.02622,0.04272 -0.08026,-0.966464 -0.170544,-1.616378 0.03953,0.407046 -0.164829,-1.237273 -0.02987,-0.240351 -0.04846,-0.48197 -0.07269,-0.722954 -0.02304,-0.836236 -0.02942,-0.586501 -0.0016,-1.395979 0.007,-0.204076 0.02779,-0.407861 0.02578,-0.612049 -0.0015,-0.155592 -0.02381,-0.310287 -0.03639,-0.465378 -0.07006,-0.863647 -0.03457,-0.314793 -0.08273,-1.234574 -0.0026,-0.210203 -0.0082,-0.42039 -0.0079,-0.630609 2.63e-4,-0.192813 0.01196,-0.385562 0.0096,-0.578361 -7.42e-4,-0.05964 -0.04886,-0.931421 -0.04978,-0.95241 -0.02209,-0.504614 -0.01757,-0.522871 -0.0206,-1.02237 0.01118,-0.5706789 0.01959,-1.1411543 0.01437,-1.7119202 0.07656,-0.5266234 0.02595,-0.291892 0.113472,-0.6330926 0.0047,-0.018439 0.01591,-0.074344 0.01373,-0.055432 -0.01009,0.087821 -0.124078,0.2445495 -0.03753,0.262528 2.556621,0.5310625 2.532395,-0.6003589 2.533079,0.3263723 -9.7e-4,0.094267 -0.0071,0.1886214 -0.0029,0.2828018 0.03025,0.6845822 0.05503,0.1221056 0.07156,1.0058154 0.0046,0.2452514 0.0017,0.4909393 -0.01361,0.7357573 -0.03892,0.623274 -0.09746,0.841811 -0.209186,1.451598 -0.09192,0.480103 -0.14263,0.70527 -0.205601,1.182273 -0.146157,1.107139 0.0228,0.05866 -0.144979,1.245752 -0.08123,0.574718 -0.11086,0.678503 -0.22437,1.235437 -0.0842,0.323188 -0.138738,0.571346 -0.250996,0.878155 -0.0364,0.09948 -0.08083,0.19585 -0.123623,0.292745 -0.01949,0.04412 -0.07436,0.177108 -0.06318,0.130185 0.02613,-0.109667 0.204881,-0.261886 0.108482,-0.32034 -0.704455,-0.427174 -1.510435,-0.658488 -2.265665,-0.987735 -0.46183,0.05257 -0.07935,0.506179 -0.249416,0.675607 -0.04237,0.04221 -0.02535,-0.116896 -0.03865,-0.175203 -0.02266,-0.09933 -0.05157,-0.197367 -0.06922,-0.297708 -0.04478,-0.254482 -0.08904,-0.646981 -0.121007,-0.912428 -0.05046,-0.467744 -0.0317,-0.938079 -0.01808,-1.406985 0.004,-0.137083 0.01486,-0.274143 0.01187,-0.411251 -0.0023,-0.10672 -0.01935,-0.212617 -0.0278,-0.319028 -0.01271,-0.160066 -0.02377,-0.320258 -0.03566,-0.480387 -0.01135,-0.620684 -0.07142,-1.238665 -0.09056,-1.859033 -0.0066,-0.215242 -0.0031,-0.4307256 -0.01014,-0.6459559 -0.01762,-0.539035 -0.03009,-0.5656064 -0.08632,-1.0970675 -0.02299,-0.5308721 -0.105999,-1.0569065 -0.130272,-1.5876169 -0.0056,-0.1228453 -8.5e-5,-0.2460289 -0.0056,-0.3688787 -2.81e-4,-0.00627 -0.0122,0.00983 -0.01026,0.0158 0.05116,0.1577208 0.111551,0.3122945 0.167326,0.4684418 0.640959,0.08648 1.280498,0.3346407 1.922878,0.2594398 0.20557,-0.024065 0.238155,-0.3400246 0.333726,-0.5236115 0.03121,-0.059944 -0.002,-0.2495339 0.0421,-0.1983201 0.05017,0.058268 -0.006,0.1537995 -0.01465,0.2301981 -0.01565,0.1380393 -0.03724,0.2753542 -0.05823,0.4126827 -0.02467,0.1613832 -0.05249,0.3222681 -0.07873,0.4834021 -0.02875,0.1948468 -0.06084,0.3892283 -0.08623,0.5845403 -0.02767,0.2128517 -0.159895,1.4093419 -0.177254,1.5595964 -0.102398,0.8863344 -0.217583,1.7707234 -0.335646,2.6550764 -0.12209,0.659102 -0.165597,0.996227 -0.355677,1.633029 -0.06673,0.223562 -0.156498,0.439598 -0.232622,0.660138 -0.09991,0.289438 -0.192895,0.57993 -0.272798,0.875414 -0.0035,0.0235 -0.01345,0.09408 -0.01049,0.07051 0.130286,-1.03506 0.184851,0.06668 -2.517258,-0.01015 -0.07985,-0.0023 -0.01237,-0.159312 -0.0159,-0.239116 -0.0067,-0.15273 0.03611,-0.18984 -0.0094,-0.146559 -0.0071,-0.01255 -0.01745,-0.02376 -0.02135,-0.03765 -0.03315,-0.117886 -0.133249,-0.561479 -0.147944,-0.652175 -0.04935,-0.304595 -0.07012,-0.621354 -0.103117,-0.928164 -0.01651,-0.153531 -0.03585,-0.306746 -0.05378,-0.46012 -0.0948,-0.716512 -0.05752,-0.36748 -0.120387,-1.147223 -0.01482,-0.183824 -0.03339,-0.3674 -0.04375,-0.551529 -0.01258,-0.22371 -0.012,-0.448041 -0.02507,-0.671723 -0.01221,-0.2091 -0.03615,-0.41737 -0.05075,-0.626317 -0.0172,-0.24627 -0.02977,-0.4928427 -0.04465,-0.7392642 -0.02695,-0.5492347 -0.02212,-1.0992326 0.0015,-1.6483868 0.0031,-0.071422 -0.01033,-0.2820811 0.01189,-0.214134 0.06526,0.1995599 -0.07556,0.5425928 0.120276,0.6182891 0.66336,0.2564037 1.41279,0.1648749 2.119185,0.2473124 0.06619,-0.1190492 0.13237,-0.2380984 0.198555,-0.3571476 0.0056,-0.00538 0.01559,-0.023807 0.0168,-0.016137 0.0084,0.052643 0.0044,0.1065161 0.006,0.1597929 0.0034,0.110062 0.0065,0.220133 0.009,0.3302179 0.0095,0.4186559 0.0078,0.4039611 0.01093,0.8266491 -0.04514,0.6068052 -0.02255,0.5059892 -0.127876,1.1070892 -0.02969,0.169416 -0.07179,0.336577 -0.09892,0.506422 -0.01914,0.119845 -0.02731,0.24119 -0.03975,0.361915 -0.05277,0.512338 -0.03847,0.325751 -0.05396,0.814954 0.02393,0.506348 -0.01104,1.011245 -0.08851,1.511766 -0.0269,0.173836 -0.06855,0.345147 -0.09656,0.518808 -0.0042,0.02593 -0.0901,0.730182 -0.09062,0.734451 -0.07327,0.496029 -0.04246,0.330738 -0.1401,0.819968 -0.01941,0.09728 -0.04545,0.193336 -0.06025,0.291422 -0.01081,0.0717 0.003,0.190524 0.0076,0.26018 0.0054,0.08385 0.01019,0.167741 0.01528,0.251611 0.0051,0.113682 0.01166,0.227308 0.01533,0.341045 0.0079,0.243789 0.0085,0.422826 0.0059,0.664137 -7.74e-4,0.07229 -0.0025,0.144574 -0.0046,0.216838 -0.0011,0.03608 0.02974,0.118115 -0.005,0.108187 -0.788451,-0.225523 -1.556133,-0.518179 -2.3342,-0.777268 -0.02803,0.04805 -0.04293,0.106714 -0.08408,0.14414 -0.02484,0.02259 0.02146,-0.06365 0.03099,-0.09585 0.01054,-0.03564 0.02247,-0.07106 0.02921,-0.107608 6.93e-4,-0.0038 -0.0069,0.0033 -0.0103,0.005 0.0044,-0.03513 0.0065,-0.07065 0.01331,-0.105397 0.02058,-0.104755 0.0459,-0.208523 0.06884,-0.312784 0.01911,-0.07205 0.03409,-0.145313 0.05732,-0.216137 0.0973,-0.296649 0.12705,-0.339285 0.233985,-0.604407 0.07398,-0.18341 0.142162,-0.368959 0.206613,-0.555879 0.01929,-0.05967 0.03713,-0.119834 0.05786,-0.179025 0.03299,-0.09423 0.06961,-0.187147 0.103251,-0.281142 0.02903,-0.08112 0.157803,-0.459971 0.18077,-0.517193 0.08609,-0.214507 0.224825,-0.504972 0.324076,-0.717653 0.182311,-0.350834 0.363189,-0.703831 0.507643,-1.072451 0.04809,-0.122706 0.08569,-0.249327 0.133014,-0.372329 0.06892,-0.179128 0.145081,-0.355391 0.215632,-0.533881 0.06826,-0.172701 0.133865,-0.346441 0.200797,-0.519662 0.288666,-0.736362 0.491543,-1.5020393 0.686166,-2.2673802 0.05832,-0.2293359 0.121791,-0.457499 0.172218,-0.6886985 0.04298,-0.1970553 0.0719,-0.3969161 0.107851,-0.5953742 0.02818,-0.1845957 0.05594,-0.369254 0.08453,-0.5537871 0.06735,-0.4348491 0.09089,-0.6135206 0.18293,-1.0414053 0.09282,-0.4314701 0.219297,-0.8537013 0.326782,-1.2814776 0.07077,-0.3245875 0.116429,-0.6541025 0.185972,-0.9789164 0.02379,-0.1110996 0.05215,-0.2211693 0.07847,-0.331697 0.05416,-0.2274786 0.07659,-0.1479587 0.04574,-0.2403746 0.147032,-0.6960711 0.227656,-1.4255838 1.658106,-1.1955463 0.533484,0.085792 0.650853,0.8642367 0.93922,1.3211937 0.03698,0.058596 0.01741,0.1374866 0.02477,0.2063817 0.01658,0.1551243 0.0285,0.3107528 0.04707,0.4656515 0.02388,0.1991304 0.05351,0.3975286 0.08026,0.5962929 0.143672,1.2121077 0.288583,2.4273738 0.310077,3.6491716 -0.007,1.0236476 -0.01124,0.5436054 0.0074,1.440163 0.04809,0.7428718 0.188231,1.4752958 0.297563,2.2105708 0.0272,0.182908 0.05953,0.365221 0.07874,0.549138 0.02166,0.207363 0.0292,0.415958 0.04381,0.623937 0.02086,0.45218 -0.0278,0.902248 -0.04496,1.353331 -0.01267,0.333069 0.0058,0.430644 -0.04657,0.792165 -0.02661,0.183792 -0.07144,0.364482 -0.107154,0.546724 -0.149944,0.686635 -0.491698,1.30046 -0.805195,1.921092 -0.665838,1.318167 0.336896,-0.646941 -0.339422,0.675768 -0.06065,0.11149 -0.118932,0.2243 -0.181947,0.33447 -0.21587,0.37741 -0.175197,0.277895 -0.384163,0.636534 -0.103882,0.17829 -0.190843,0.366091 -0.294829,0.544321 -0.07076,0.121279 -0.14893,0.238079 -0.223394,0.357119 -0.0061,0.02498 -0.007,0.0519 -0.01842,0.07494 -0.01109,0.02237 -0.304938,0.570403 -0.366408,0.532439 -1.833899,-1.132615 -1.549254,-2.360304 -2.050644,-1.465978 -0.0029,-0.01774 -0.0057,-0.03549 -0.0086,-0.05323 -0.0027,-0.05646 -6.19e-4,-0.113354 -0.0082,-0.16937 -0.0055,-0.04052 -0.02189,-0.07882 -0.03067,-0.118751 -0.01926,-0.0876 -0.04042,-0.174972 -0.05341,-0.263718 -0.02879,-0.196822 -0.07727,-0.696935 -0.09842,-0.906254 -0.0096,-0.173532 -0.01695,-0.347207 -0.02886,-0.520598 -0.0097,-0.141474 -0.02609,-0.282436 -0.03603,-0.423895 -0.0278,-0.395326 -0.03688,-0.60769 -0.03817,-1.004242 -5.12e-4,-0.157285 -0.0025,-0.314766 0.006,-0.471819 0.01057,-0.194169 0.0342,-0.387406 0.0513,-0.581109 0.09952,-0.871677 0.04059,-1.748563 0.02822,-2.622755 0.0017,-0.595322 0.008,-1.190576 0.0062,-1.785911 -2.21e-4,-0.05776 -0.01582,-0.229001 -6.62e-4,-0.173269 0.02952,0.108531 -0.06693,0.319315 0.04451,0.334476 0.802111,0.109121 1.619722,0.03618 2.428497,0.002 0.03696,-0.0016 0.0015,-0.126396 0.03248,-0.106109 0.03596,0.02358 0.0016,0.08599 0.0024,0.128981 0.0015,0.07834 0.0029,0.156688 0.0044,0.235031 -0.01278,0.151559 -0.0172,0.304055 -0.03833,0.454677 -0.02171,0.154726 -0.06311,0.306094 -0.08999,0.460005 -0.01665,0.09533 -0.02677,0.191696 -0.04057,0.287484 -0.0349,0.242254 -0.07776,0.496647 -0.09514,0.741224 -0.0087,0.121775 -0.0078,0.244042 -0.01163,0.366063 0.03182,0.860846 -0.04993,1.720141 -0.173121,2.571185 -0.02889,0.199558 -0.05968,0.398927 -0.09685,0.59711 -0.03358,0.179032 -0.07687,0.356104 -0.11531,0.534156 -0.0772,0.372847 -0.169063,0.744082 -0.23238,1.119777 -0.0077,0.04562 -0.0089,0.184269 -0.01303,0.138188 -0.08734,-0.971135 2.451796,0.957153 -2.04135,-1.081126 -0.22078,0.236617 -0.260708,0.227009 -0.366142,0.493542 -0.02026,0.05121 -0.02167,0.108463 -0.04084,0.160095 -0.0036,0.0098 0.0016,-0.02499 -0.0073,-0.03038 -0.0066,-0.004 -0.01163,0.01026 -0.01744,0.01539 -0.01429,-0.03597 -0.02858,-0.07193 -0.04288,-0.107894 -0.147527,-0.37604 -0.273461,-0.761305 -0.327174,-1.163684 -0.02485,-0.186137 -0.02635,-0.374659 -0.03733,-0.562126 -0.01855,-0.316818 -0.01916,-0.442201 -0.02756,-0.762869 -0.0047,-0.436553 0.0044,-0.873062 0.0076,-1.309584 0.0011,-0.159209 0.0076,-0.318511 0.0023,-0.477635 -0.0049,-0.146644 -0.02249,-0.292589 -0.03294,-0.438942 -0.01283,-0.179776 -0.0246,-0.359627 -0.0369,-0.539441 -0.02225,-0.614301 -0.02692,-0.559961 -0.02263,-1.174697 0.0012,-0.176496 -9e-4,-0.353208 0.0092,-0.529422 0.02893,-0.507057 0.0534,-0.464095 0.09477,-0.9004163 0.0068,-0.071558 0.0077,-0.1435479 0.01162,-0.2153218 -0.02526,-0.5532319 -0.03359,-1.1065024 -0.02733,-1.6602604 -0.0055,0.00615 -0.0144,0.026407 -0.0166,0.018436 -0.01814,-0.065684 -0.02547,-0.133975 -0.03398,-0.201584 -0.01325,-0.105259 -0.0252,-0.2108136 -0.03126,-0.3167295 -0.01494,-0.2608854 0.0016,-0.5214919 0.01296,-0.7820296 -0.0073,-0.068764 -0.05561,-0.2906734 -0.03889,-0.3341487 0.01862,-0.048419 0.01745,0.1028904 0.01645,0.1547568 -3.43e-4,0.017708 -0.01311,-0.032938 -0.01848,-0.049816 -0.01473,-0.046338 -0.02786,-0.093171 -0.04179,-0.1397559 -0.05535,-0.9034356 -0.07977,-0.1463299 0.171663,-1.0653615 0.02243,-0.081983 -0.08722,0.1470204 -0.116527,0.2268022 -0.07622,0.2074682 -0.06808,0.2473723 -0.07641,0.4309079 -0.114633,2.5245173 2.622705,-2.6079651 2.551463,-0.081851 l 0,0 c -0.0064,0.226613 0.0041,0.2862462 -0.08179,0.5391834 -0.03234,0.09517 -0.153587,0.3690557 -0.132823,0.2707106 0.211813,-1.0032258 0.221892,-0.038207 0.147059,-0.9927802 -0.04487,-0.1238536 0.02652,0.072696 0.03197,0.093426 0.07518,0.2860171 0.105158,0.4383678 0.123552,0.7134088 0.0077,0.1150234 0.0099,0.2303461 0.01492,0.3455191 -0.005,0.1137586 -0.01093,0.2274713 -0.01586,0.3412309 -0.003,0.068977 -0.0077,0.1532694 0.0011,0.2223734 0.009,0.071008 0.0261,0.1408099 0.03567,0.2117427 0.01907,0.1413723 0.03348,0.2833339 0.05022,0.4250009 -0.0032,0.2700334 -0.0058,0.539988 5.03e-4,0.8100149 0.0048,0.2044111 0.01859,0.4085638 0.02217,0.6129993 0.0021,0.1229801 -1.78e-4,0.2459976 -2.67e-4,0.3689964 -0.0082,0.1191787 -0.01354,0.2385901 -0.02462,0.3575366 -1.76e-4,0.0019 -0.07693,0.639706 -0.07707,0.642228 -0.0094,0.160242 -0.0073,0.320966 -0.0088,0.481479 -0.0049,0.531988 -0.0012,0.470902 0.01668,1.003215 0.01183,0.173009 0.07115,1.02364 0.07576,1.164839 0.0053,0.163399 -0.0012,0.32697 -0.0024,0.490451 -0.0029,0.406511 -0.01114,0.813001 -0.0083,1.21954 0.0028,0.112664 0.0042,0.225368 0.0083,0.337992 0.0046,0.126685 0.01481,0.253157 0.0177,0.379892 0.0015,0.06637 -0.0089,0.132871 -0.0045,0.19911 0.01981,0.29617 0.148032,0.568297 0.245174,0.843952 0.03782,0.123571 0.08455,0.244762 0.113474,0.370713 0.109929,0.478636 0.130796,1.05631 -0.140601,1.491547 -0.08988,0.144142 -0.218114,0.260477 -0.327171,0.390716 -0.697376,-0.300122 -1.435986,-0.518417 -2.092128,-0.900365 -0.0912,-0.05309 -0.0058,-0.211305 0.0016,-0.316574 0.01592,-0.227375 0.06661,-0.446413 0.111253,-0.669065 0.104165,-0.51955 0.05929,-0.303897 0.174965,-0.829073 0.02977,-0.132753 0.06386,-0.264611 0.08932,-0.398259 0.03273,-0.171831 0.05966,-0.344754 0.08518,-0.517805 0.114365,-0.775741 0.18582,-1.557686 0.153537,-2.342685 0.0085,-0.18231 0.01142,-0.36496 0.02542,-0.546929 0.01961,-0.254768 0.06854,-0.576849 0.107139,-0.833148 0.02194,-0.145675 0.04091,-0.291867 0.06738,-0.436787 0.01249,-0.06837 0.03295,-0.13505 0.04942,-0.202575 0.0082,-0.04701 0.0164,-0.09403 0.02461,-0.141037 -0.0017,-0.101005 -0.02329,-0.949165 0.04738,-0.964232 1.993956,-0.4250988 2.543398,-0.842994 2.546161,0.490013 0.0018,0.586158 -0.0037,1.172241 -0.0064,1.75838 0.01298,0.967022 0.0731,1.936758 -0.03956,2.900853 -0.01332,0.124604 -0.03247,0.248722 -0.03997,0.373812 -0.0079,0.131485 -0.006,0.263393 -0.0061,0.395113 -2.95e-4,0.330188 0.0062,0.498846 0.02963,0.832775 0.01176,0.16763 0.03005,0.334764 0.04138,0.502423 0.009,0.132569 0.01297,0.265424 0.01946,0.398136 0.01416,0.140247 0.0294,0.280391 0.04249,0.420742 0.0075,0.08046 0.0074,0.161743 0.01933,0.24167 0.01735,0.116132 0.04913,0.229728 0.06838,0.345559 0.02479,0.149104 0.04954,0.298469 0.06368,0.448955 0.0229,0.243541 0.0023,0.448757 -0.01055,0.693656 -0.03026,0.143311 -0.04791,0.289878 -0.09079,0.429933 -0.0349,0.114 -0.03634,0.384878 -0.141407,0.328528 -0.740939,-0.397392 -1.303823,-1.074094 -2.032094,-1.494253 -0.08123,-0.04687 -0.11774,0.146157 -0.171986,0.222658 -0.0039,0.0055 -0.0033,0.02628 -2.67e-4,0.02026 0.06831,-0.133893 0.131265,-0.27045 0.196898,-0.405675 0.04038,-0.06072 0.08457,-0.119071 0.121152,-0.182154 0.127805,-0.220405 0.229212,-0.45552 0.366736,-0.670609 0.104735,-0.179834 0.220718,-0.352981 0.324664,-0.533272 0.05218,-0.09051 0.10032,-0.183286 0.15048,-0.274928 0.180618,-0.352616 0.357255,-0.707113 0.537514,-1.059918 0.08146,-0.159427 0.221554,-0.42677 0.287362,-0.601474 0.03742,-0.09934 0.06358,-0.202574 0.09537,-0.303861 0.0206,-0.0824 0.04763,-0.163462 0.06179,-0.247213 0.04133,-0.244362 0.03004,-0.444766 0.03964,-0.696163 0.01343,-0.351717 0.0506,-0.702363 0.04654,-1.054727 -0.0077,-0.141562 -0.0086,-0.283666 -0.0232,-0.424686 C 20.51666,12.706895 20.48583,12.533276 20.45993,12.359092 20.334007,11.512251 20.173563,10.668213 20.133181,9.8111732 20.115339,8.8810321 20.117376,9.3462593 20.127091,8.4154917 20.11074,7.2747847 19.969297,6.1404705 19.837679,5.0087689 19.73555,4.2380924 19.765646,4.5190337 19.701855,3.875546 19.689182,3.7477137 19.561733,3.415154 19.664698,3.4919648 c 1.668416,1.2446232 0.09059,1.6199424 2.489163,0.1255015 0.01362,-0.00849 4.73e-4,-0.032103 7.1e-4,-0.048154 -0.01564,0.1084709 -0.02719,0.2176112 -0.04693,0.3254126 -0.01272,0.06945 -0.09104,0.3646803 -0.106235,0.4354617 -0.08005,0.372773 -0.12924,0.7517139 -0.217915,1.1227972 -0.03487,0.1375246 -0.06801,0.2755003 -0.104612,0.4125738 -0.112308,0.4205705 -0.09604,0.2969999 -0.192431,0.7363671 -0.08475,0.386286 -0.100789,0.5273024 -0.164624,0.9368566 -0.03278,0.2103137 -0.06508,0.4207019 -0.09762,0.6310528 -0.04714,0.2498903 -0.08711,0.5012397 -0.141412,0.749671 -0.05212,0.238452 -0.117414,0.4738379 -0.177734,0.7103495 -0.219384,0.8601964 -0.451903,1.7193674 -0.776213,2.5470944 -0.07205,0.186136 -0.14262,0.372852 -0.216147,0.558409 -0.05918,0.149348 -0.124041,0.296425 -0.181955,0.446268 -0.06536,0.169115 -0.120678,0.342047 -0.187819,0.510465 -0.156029,0.391384 -0.342542,0.770196 -0.539088,1.142516 -0.04757,0.101787 -0.09473,0.203769 -0.142711,0.305361 -0.02838,0.06008 -0.06157,0.118015 -0.08638,0.179657 -0.03676,0.09134 -0.06551,0.185705 -0.09807,0.278626 -0.08059,0.229971 -0.167523,0.457453 -0.240713,0.689907 -0.08236,0.235293 -0.168401,0.468669 -0.261652,0.699928 -0.02704,0.06707 -0.05455,0.133968 -0.08381,0.200098 -0.01182,0.02672 -0.02992,0.05067 -0.03936,0.07832 -0.01901,0.05565 -0.0304,0.113618 -0.0456,0.170427 -0.04385,0.08604 -0.0049,0.0011 -0.03849,0.20085 -0.0633,0.376824 -0.155149,0.693892 -0.336163,1.03393 -0.789057,-0.241869 -1.581492,-0.472981 -2.367171,-0.725606 -0.01106,-0.0036 0.0019,-0.02317 0.0023,-0.03479 0.0017,-0.05747 0.0032,-0.114951 0.004,-0.172442 0.0037,-0.282758 3.34e-4,-0.565663 -0.01714,-0.847989 -0.01395,-0.256365 -0.03345,-0.500655 -0.01943,-0.758451 0.0076,-0.139275 0.025,-0.277992 0.04537,-0.415977 0.01345,-0.09105 0.03749,-0.180223 0.05599,-0.270385 0.07953,-0.387616 0.04602,-0.20521 0.110358,-0.634186 0.02711,-0.221145 0.08386,-0.697637 0.116445,-0.900027 0.02066,-0.128306 0.05239,-0.254627 0.07452,-0.382688 0.01966,-0.113783 0.03964,-0.227733 0.0508,-0.342661 0.03212,-0.33087 0.01944,-0.585956 0.01679,-0.925295 0.0075,-0.179522 0.01025,-0.359311 0.02257,-0.538568 0.01541,-0.224275 0.08497,-0.829797 0.117281,-1.034731 0.08895,-0.564097 0.07508,-0.268041 0.146524,-0.7799073 0.01494,-0.1070732 0.02159,-0.2151417 0.03239,-0.3227126 -0.0027,-0.3804751 -0.01412,-0.7604623 -0.01975,-1.1408395 -0.0027,-0.1800032 -0.0121,-0.5656077 0.03915,-0.7381152 0.06441,-0.2167894 0.172817,-0.4179939 0.259225,-0.6269908 0.731277,0.049682 1.502306,-0.093913 2.19383,0.1490451 0.216969,0.07623 0.110737,0.4469083 0.148219,0.6738046 0.009,0.054468 -0.0071,0.1101907 -0.0096,0.1653402 -0.0049,0.1084923 -0.01015,0.2169903 -0.01265,0.3255651 -0.01193,0.5176722 -0.0049,0.5148602 0.0083,1.0741575 0.01377,0.2303713 0.02544,0.4608773 0.0413,0.6911139 0.01694,0.245825 0.04272,0.491027 0.05709,0.737016 0.0109,0.186606 0.0082,0.37383 0.01868,0.560459 0.01036,0.184436 0.02955,0.368269 0.04382,0.552444 0.05453,0.703956 0.01145,0.295915 0.111192,1.053037 0.05546,0.478324 0.05728,0.46666 0.09787,0.909062 0.0074,0.0806 0.0077,0.161996 0.02001,0.241988 0.04707,0.305126 0.150236,0.599366 0.205355,0.90274 0.0093,0.0971 0.0209,0.194004 0.02789,0.291296 0.0025,0.03527 0.01087,0.07224 6.31e-4,0.10609 -0.0069,0.02281 0.01244,-0.07179 -0.01137,-0.0706 -0.846933,0.04263 -1.688984,0.234622 -2.536235,0.198837 -0.0506,-0.0021 0.07216,-0.530689 0.07751,-0.55601 0.0997,-0.360063 0.209121,-0.716548 0.334196,-1.068811 0.05083,-0.14315 0.115781,-0.281341 0.16054,-0.426502 0.159139,-0.516107 0.195276,-0.795268 0.297925,-1.336006 0.115733,-0.866557 0.228752,-1.733135 0.329084,-2.6016416 0.03727,-0.3225953 0.143995,-1.3059213 0.188781,-1.6483304 0.02719,-0.2078675 0.06138,-0.4147582 0.09208,-0.6221373 0.02479,-0.1519117 0.04911,-0.3039012 0.07438,-0.4557352 0.01126,-0.067675 0.02598,-0.1347997 0.0352,-0.2027835 0.0058,-0.042795 0.0052,-0.086252 0.0098,-0.1291878 0.02906,-0.2689623 0.06908,-0.989512 0.416414,-1.0554082 0.652092,-0.1237151 1.32043,0.1363224 1.980646,0.2044837 0.07113,0.1799038 0.160195,0.3537128 0.213385,0.5397113 0.06255,0.2187455 0.02853,0.342626 0.03749,0.5493733 0.02186,0.5041327 0.102416,1.0037758 0.123359,1.5080555 0.0224,0.2236957 0.05032,0.4469073 0.0672,0.6710873 0.05189,0.689228 0.02023,0.5618102 0.03992,1.2153629 0.01847,0.613076 0.03641,0.628643 0.06781,1.262803 0.0087,0.174781 0.0123,0.349773 0.01845,0.52466 0.01797,0.242423 0.0646,0.834573 0.06939,1.061924 0.0029,0.138405 -0.0078,0.276763 -0.01198,0.415136 -0.01032,0.341297 -0.02976,0.683685 9.91e-4,1.024638 0.01537,0.128017 0.03144,0.255953 0.04612,0.384051 0.0099,0.08592 0.01231,0.172859 0.0275,0.258003 0.07542,0.422834 0.247826,0.847694 0.16198,1.288657 -0.04243,0.21797 -0.16723,0.411438 -0.250846,0.617157 -0.765435,-0.315663 -1.593215,-0.509727 -2.296305,-0.946989 -0.02382,-0.01481 0.07766,-0.332831 0.147092,-0.454463 0.0079,-0.01381 0.02019,-0.02523 0.02588,-0.04007 0.02856,-0.07456 0.05382,-0.150429 0.07643,-0.227 0.03639,-0.123235 0.06701,-0.248104 0.100508,-0.372156 0.0927,-0.445639 0.125345,-0.568449 0.190802,-1.030217 0.127556,-0.899854 0.02898,-0.382965 0.156728,-1.330284 0.02938,-0.217853 0.0648,-0.43489 0.102443,-0.651468 0.0354,-0.203674 0.07775,-0.406076 0.116632,-0.609113 0.08357,-0.429038 0.131744,-0.610146 0.165989,-1.044087 0.01339,-0.169677 0.02089,-0.340122 0.01787,-0.5102995 -0.0094,-0.5286927 -0.108404,-1.0552047 -0.07014,-1.5850127 0.07288,-1.0818204 -0.04914,-0.5949841 2.568448,-0.1440753 0.03787,0.00652 -0.03705,0.3099097 -0.06136,0.4014546 -0.0072,0.027123 -0.0081,0.1049746 -0.02277,0.081051 -0.0221,-0.03604 -0.0035,-0.084479 -0.0052,-0.1267178 0.0052,0.5742253 -0.0018,1.1482062 -0.0143,1.7223237 0.0017,0.428199 -0.0023,0.459045 0.01693,0.897887 0.01569,0.357202 0.04825,0.779262 0.05309,1.134272 0.0023,0.168715 -0.0086,0.337376 -0.0093,0.506105 -7.88e-4,0.175793 0.0031,0.351575 0.0047,0.527363 0.0096,0.190916 0.01598,0.382022 0.02881,0.572749 0.03372,0.501392 0.08577,0.855471 0.09141,1.366087 0.0021,0.193731 -0.01729,0.387102 -0.02465,0.580704 -0.0068,0.17924 -0.01629,0.358448 -0.01788,0.53781 -0.0016,0.177412 0.0056,0.354793 0.0084,0.53219 0.112795,1.183075 -0.01337,-0.02921 0.163377,1.308772 0.09091,0.688188 0.140004,1.380465 0.188974,2.072527 -0.158978,-0.715829 -0.04758,-0.357073 -1.674786,-1.026588 -0.08655,-0.03561 -0.176179,0.06906 -0.251827,0.124165 -0.238824,0.173975 -0.240205,0.190694 -0.34498,0.36504 -0.01072,0.01783 0.02163,-0.03554 0.03245,-0.05331 0.04839,-0.08998 0.09678,-0.179954 0.145162,-0.269931 0.01087,-0.01376 0.02353,-0.02629 0.03261,-0.0413 0.02336,-0.03863 0.05219,-0.162605 0.06442,-0.119145 0.01663,0.0591 -0.03776,0.117296 -0.0479,0.177849 -0.0068,0.04067 0.01574,0.446586 0.0097,-0.123336 0.01517,-0.203983 0.02528,-0.37529 0.05517,-0.582633 0.01738,-0.120544 0.100396,-0.478913 0.124413,-0.567626 0.01391,-0.05138 0.03731,-0.09978 0.05265,-0.150749 0.01828,-0.06078 0.03208,-0.122815 0.04811,-0.184223 0.06866,-0.445633 0.02146,-0.101258 0.07548,-0.657373 0.01036,-0.10669 0.02793,-0.21273 0.03452,-0.319719 0.0096,-0.155053 0.0084,-0.310585 0.01392,-0.465835 0.05142,-1.446125 -0.02158,0.84637 0.03547,-0.997861 0.02371,-0.19881 0.04108,-0.39848 0.07113,-0.596431 0.03726,-0.24545 0.101829,-0.486152 0.141436,-0.731234 0.01146,-0.07093 0.0236,-0.14213 0.02647,-0.213925 0.0041,-0.10298 -0.0045,-0.206082 -0.0055,-0.309139 -0.0011,-0.106283 -6.47e-4,-0.212577 -9.71e-4,-0.318866 0.01296,-0.466528 0.0029,-0.196785 0.0274,-0.681655 0.01302,-0.257177 0.03212,-0.565506 0.02742,-0.822559 -0.0089,-0.484402 -0.03457,-0.580292 -0.09532,-1.08505 C 21.444412,9.3757099 21.240594,8.1759301 21.069013,6.9710422 20.991537,6.5022491 20.961163,6.2615475 20.846291,5.7980418 20.789403,5.5685021 20.716912,5.3430785 20.656949,5.114323 20.603646,4.9109741 20.554414,4.70656 20.506529,4.5018674 20.340346,3.7914894 20.498093,4.3766067 20.325907,3.7656993 19.64034,1.3333493 22.046899,0.53043118 22.747682,2.9584409 z"
         id="path5314"
         style="fill:#ff0000;fill-opacity:1;fill-rule:nonzero;stroke:none" />
    </clipPath>
  </defs>
  <sodipodi:namedview
     pagecolor="#ffffff"
     bordercolor="#666666"
     borderopacity="1"
     objecttolerance="10"
     gridtolerance="10"
     guidetolerance="10"
     inkscape:pageopacity="0"
     inkscape:pageshadow="2"
     inkscape:window-width="1855"
     inkscape:window-height="1056"
     id="namedview3145"
     showgrid="false"
     inkscape:zoom="27.812867"
     inkscape:cx="22.774705"
     inkscape:cy="10.357747"
     inkscape:window-x="65"
     inkscape:window-y="24"
     inkscape:window-maximized="1"
     inkscape:current-layer="svg3330" />
  <metadata
     id="metadata3335">
    <rdf:RDF>
      <cc:Work
         rdf:about="">
        <dc:format>image/svg+xml</dc:format>
        <dc:type
           rdf:resource="http://purl.org/dc/dcmitype/StillImage" />
        <dc:title />
      </cc:Work>
    </rdf:RDF>
  </metadata>
  <g
     id="g5242">
    <path
       id="path3122-6"
       style="opacity:0.3;color:#000000"
       d="M 8,3 C 6.338,3 5,4.338 5,6 v 8 c 0,1.662 1.338,3 3,3 1.662,0 3,-1.338 3,-3 V 6 C 11,4.338 9.662,3 8,3 z m -6,7 v 1 h 1 v 3 c 0,2.4238 1.7175,4.4415 4,4.9062 v 2.094 H 6 v 1 h 4 v -1 H 9 v -2.0938 c 2.283,-0.464 4,-2.4822 4,-4.906 v -3 h 1 v -1 h -1 -1 v 4 c 0,2.216 -1.784,4 -4,4 -2.216,0 -4,-1.784 -4,-4 v -4 H 3 2 z"
       inkscape:connector-curvature="0" />
    <path
       id="path3122"
       style="color:#000000;fill:#dfdbd2"
       d="M 8,2 C 6.338,2 5,3.338 5,5 v 8 c 0,1.662 1.338,3 3,3 1.662,0 3,-1.338 3,-3 V 5 C 11,3.338 9.662,2 8,2 z M 2,9 v 1 h 1 v 3 c 0,2.4238 1.7175,4.4415 4,4.9062 V 20 H 6 v 1 h 4 V 20 H 9 V 17.9062 C 11.283,17.4415 13,15.4238 13,13 v -3 h 1 V 9 h -1 -1 v 4 c 0,2.216 -1.784,4 -4,4 C 5.784,17 4,15.216 4,13 V 9 H 3 2 z"
       inkscape:connector-curvature="0" />
  </g>
  <g
     id="g5246"
     transform="translate(-0.25168211,-1.0067283)"
     clip-path="url(#clipPath5312)">
    <path
       style="opacity:0.39094651;fill:#000000;fill-opacity:0.8;stroke:none"
       d="m 12.020629,7.1413561 c -0.3052,0 -0.5665,0.128 -0.75,0.3438 L 9.0206291,10.141356 h -2 c -0.552,0 -1,0.448 -1,1 -0.00627,0.99607 0.00222,2.0145 0,3 0,0.552 0.448,1 1,1 h 2 l 2.1561999,2.4688 c 0.1714,0.305 0.4694,0.531 0.8438,0.531 0.552,0 1,-0.448 1,-1 V 8.1411561 c 0,-0.552 -0.448,-1 -1,-1 z m 9.688,2 -2.188,2.2499999 -2.25,-2.2187999 -1.25,1.2807999 2.25,2.188 -2.219,2.25 1.281,1.25 2.188,-2.25 2.25,2.219 1.25,-1.281 -2.25,-2.188 2.219,-2.25 -1.281,-1.2499999 z"
       id="path2396-0"
       inkscape:connector-curvature="0" />
    <path
       style="fill:#dfdbd2;fill-opacity:1;fill-rule:evenodd;stroke:none"
       d="m 12.020629,6.1413561 c -0.3052,0 -0.5665,0.128 -0.75,0.3438 l -2.2499999,2.6562 h -2 c -0.552,0 -1,0.448 -1,0.9999999 -0.00627,0.99607 0.00222,2.0145 0,3 0,0.552 0.448,1 1,1 h 2 l 2.1561999,2.4688 c 0.1714,0.305 0.4694,0.531 0.8438,0.531 0.552,0 1,-0.448 1,-1 V 7.1411561 c 0,-0.552 -0.448,-1 -1,-1 z m 9.688,2 -2.188,2.2499999 -2.25,-2.2187999 -1.25,1.2813 2.25,2.1874999 -2.219,2.25 1.281,1.25 2.188,-2.25 2.25,2.219 1.25,-1.281 -2.25,-2.188 2.219,-2.2499999 -1.281,-1.25 z"
       id="rect3180"
       inkscape:connector-curvature="0" />
  </g>
</svg>
